<svg width="1125" height="151" viewBox="0 0 1125 151" fill="none" xmlns="http://www.w3.org/2000/svg">
<path d="M24.64 14.47C27.74 14.47 30.12 15.02 31.78 16.12C33.44 17.2 34.27 18.98 34.27 21.46C34.27 23.96 33.43 25.77 31.75 26.89C30.07 27.99 27.67 28.54 24.55 28.54H23.08V35.5H18.4V15.01C19.42 14.81 20.5 14.67 21.64 14.59C22.78 14.51 23.78 14.47 24.64 14.47ZM24.94 18.46C24.6 18.46 24.26 18.47 23.92 18.49C23.6 18.51 23.32 18.53 23.08 18.55V24.55H24.55C26.17 24.55 27.39 24.33 28.21 23.89C29.03 23.45 29.44 22.63 29.44 21.43C29.44 20.85 29.33 20.37 29.11 19.99C28.91 19.61 28.61 19.31 28.21 19.09C27.83 18.85 27.36 18.69 26.8 18.61C26.24 18.51 25.62 18.46 24.94 18.46ZM46.9166 23.68C46.5166 23.58 46.0466 23.48 45.5066 23.38C44.9666 23.26 44.3866 23.2 43.7666 23.2C43.4866 23.2 43.1466 23.23 42.7466 23.29C42.3666 23.33 42.0766 23.38 41.8766 23.44V35.5H37.4066V20.56C38.2066 20.28 39.1466 20.02 40.2266 19.78C41.3266 19.52 42.5466 19.39 43.8866 19.39C44.1266 19.39 44.4166 19.41 44.7566 19.45C45.0966 19.47 45.4366 19.51 45.7766 19.57C46.1166 19.61 46.4566 19.67 46.7966 19.75C47.1366 19.81 47.4266 19.89 47.6666 19.99L46.9166 23.68ZM64.5299 27.58C64.5299 28.82 64.3499 29.96 63.9899 31C63.6299 32.02 63.1099 32.9 62.4299 33.64C61.7499 34.36 60.9299 34.92 59.9699 35.32C59.0299 35.72 57.9699 35.92 56.7899 35.92C55.6299 35.92 54.5699 35.72 53.6099 35.32C52.6699 34.92 51.8599 34.36 51.1799 33.64C50.4999 32.9 49.9699 32.02 49.5899 31C49.2099 29.96 49.0199 28.82 49.0199 27.58C49.0199 26.34 49.2099 25.21 49.5899 24.19C49.9899 23.17 50.5299 22.3 51.2099 21.58C51.9099 20.86 52.7299 20.3 53.6699 19.9C54.6299 19.5 55.6699 19.3 56.7899 19.3C57.9299 19.3 58.9699 19.5 59.9099 19.9C60.8699 20.3 61.6899 20.86 62.3699 21.58C63.0499 22.3 63.5799 23.17 63.9599 24.19C64.3399 25.21 64.5299 26.34 64.5299 27.58ZM59.9699 27.58C59.9699 26.2 59.6899 25.12 59.1299 24.34C58.5899 23.54 57.8099 23.14 56.7899 23.14C55.7699 23.14 54.9799 23.54 54.4199 24.34C53.8599 25.12 53.5799 26.2 53.5799 27.58C53.5799 28.96 53.8599 30.06 54.4199 30.88C54.9799 31.68 55.7699 32.08 56.7899 32.08C57.8099 32.08 58.5899 31.68 59.1299 30.88C59.6899 30.06 59.9699 28.96 59.9699 27.58Z" fill="#CAB7AD"/>
<path d="M74.2926 35.8C72.9926 35.78 71.9326 35.64 71.1126 35.38C70.3126 35.12 69.6726 34.76 69.1926 34.3C68.7326 33.82 68.4126 33.25 68.2326 32.59C68.0726 31.91 67.9926 31.15 67.9926 30.31V12.94L72.4626 12.22V29.41C72.4626 29.81 72.4926 30.17 72.5526 30.49C72.6126 30.81 72.7226 31.08 72.8826 31.3C73.0626 31.52 73.3126 31.7 73.6326 31.84C73.9526 31.98 74.3826 32.07 74.9226 32.11L74.2926 35.8ZM83.9542 32.38C84.3942 32.38 84.8142 32.37 85.2142 32.35C85.6142 32.33 85.9342 32.3 86.1742 32.26V28.87C85.9942 28.83 85.7242 28.79 85.3642 28.75C85.0042 28.71 84.6742 28.69 84.3742 28.69C83.9542 28.69 83.5542 28.72 83.1742 28.78C82.8142 28.82 82.4942 28.91 82.2142 29.05C81.9342 29.19 81.7142 29.38 81.5542 29.62C81.3942 29.86 81.3142 30.16 81.3142 30.52C81.3142 31.22 81.5442 31.71 82.0042 31.99C82.4842 32.25 83.1342 32.38 83.9542 32.38ZM83.5942 19.3C84.9142 19.3 86.0142 19.45 86.8942 19.75C87.7742 20.05 88.4742 20.48 88.9942 21.04C89.5342 21.6 89.9142 22.28 90.1342 23.08C90.3542 23.88 90.4642 24.77 90.4642 25.75V35.05C89.8242 35.19 88.9342 35.35 87.7942 35.53C86.6542 35.73 85.2742 35.83 83.6542 35.83C82.6342 35.83 81.7042 35.74 80.8642 35.56C80.0442 35.38 79.3342 35.09 78.7342 34.69C78.1342 34.27 77.6742 33.73 77.3542 33.07C77.0342 32.41 76.8742 31.6 76.8742 30.64C76.8742 29.72 77.0542 28.94 77.4142 28.3C77.7942 27.66 78.2942 27.15 78.9142 26.77C79.5342 26.39 80.2442 26.12 81.0442 25.96C81.8442 25.78 82.6742 25.69 83.5342 25.69C84.1142 25.69 84.6242 25.72 85.0642 25.78C85.5242 25.82 85.8942 25.88 86.1742 25.96V25.54C86.1742 24.78 85.9442 24.17 85.4842 23.71C85.0242 23.25 84.2242 23.02 83.0842 23.02C82.3242 23.02 81.5742 23.08 80.8342 23.2C80.0942 23.3 79.4542 23.45 78.9142 23.65L78.3442 20.05C78.6042 19.97 78.9242 19.89 79.3042 19.81C79.7042 19.71 80.1342 19.63 80.5942 19.57C81.0542 19.49 81.5342 19.43 82.0342 19.39C82.5542 19.33 83.0742 19.3 83.5942 19.3ZM94.5063 20.26C95.2663 20.04 96.2463 19.84 97.4463 19.66C98.6463 19.46 99.9063 19.36 101.226 19.36C102.566 19.36 103.676 19.54 104.556 19.9C105.456 20.24 106.166 20.73 106.686 21.37C107.206 22.01 107.576 22.77 107.796 23.65C108.016 24.53 108.126 25.51 108.126 26.59V35.5H103.656V27.13C103.656 25.69 103.466 24.67 103.086 24.07C102.706 23.47 101.996 23.17 100.956 23.17C100.636 23.17 100.296 23.19 99.9363 23.23C99.5763 23.25 99.2563 23.28 98.9763 23.32V35.5H94.5063V20.26ZM115.982 27.49C115.982 28.87 116.292 29.98 116.912 30.82C117.532 31.66 118.452 32.08 119.672 32.08C120.072 32.08 120.442 32.07 120.782 32.05C121.122 32.01 121.402 31.97 121.622 31.93V23.8C121.342 23.62 120.972 23.47 120.512 23.35C120.072 23.23 119.622 23.17 119.162 23.17C117.042 23.17 115.982 24.61 115.982 27.49ZM126.092 34.99C125.692 35.11 125.232 35.23 124.712 35.35C124.192 35.45 123.642 35.54 123.062 35.62C122.502 35.7 121.922 35.76 121.322 35.8C120.742 35.86 120.182 35.89 119.642 35.89C118.342 35.89 117.182 35.7 116.162 35.32C115.142 34.94 114.282 34.4 113.582 33.7C112.882 32.98 112.342 32.12 111.962 31.12C111.602 30.1 111.422 28.96 111.422 27.7C111.422 26.42 111.582 25.27 111.902 24.25C112.222 23.21 112.682 22.33 113.282 21.61C113.882 20.89 114.612 20.34 115.472 19.96C116.352 19.58 117.352 19.39 118.472 19.39C119.092 19.39 119.642 19.45 120.122 19.57C120.622 19.69 121.122 19.86 121.622 20.08V12.94L126.092 12.22V34.99Z" fill="#C9B7AD"/>
<path d="M299.549 33.5H294.932L287.21 21.782V33.5H282.593V14.411H287.21L294.932 26.237V14.411H299.549V33.5ZM309.785 18.245C311.279 18.245 312.611 18.56 313.781 19.19C314.969 19.802 315.896 20.693 316.562 21.863C317.246 23.033 317.588 24.401 317.588 25.967C317.588 27.533 317.246 28.901 316.562 30.071C315.896 31.241 314.969 32.141 313.781 32.771C312.611 33.383 311.279 33.689 309.785 33.689C308.291 33.689 306.95 33.383 305.762 32.771C304.574 32.141 303.638 31.241 302.954 30.071C302.288 28.901 301.955 27.533 301.955 25.967C301.955 24.401 302.288 23.033 302.954 21.863C303.638 20.693 304.574 19.802 305.762 19.19C306.95 18.56 308.291 18.245 309.785 18.245ZM309.785 22.241C308.903 22.241 308.156 22.565 307.544 23.213C306.95 23.843 306.653 24.761 306.653 25.967C306.653 27.173 306.95 28.091 307.544 28.721C308.156 29.351 308.903 29.666 309.785 29.666C310.667 29.666 311.405 29.351 311.999 28.721C312.593 28.091 312.89 27.173 312.89 25.967C312.89 24.761 312.593 23.843 311.999 23.213C311.405 22.565 310.667 22.241 309.785 22.241ZM318.686 18.731V14.411H326.408V33.5H321.548V18.731H318.686ZM343.732 14.222C346.162 14.222 348.169 14.861 349.753 16.139C351.355 17.417 352.39 19.145 352.858 21.323H347.971C347.611 20.441 347.053 19.748 346.297 19.244C345.559 18.74 344.677 18.488 343.651 18.488C342.301 18.488 341.212 18.983 340.384 19.973C339.556 20.963 339.142 22.286 339.142 23.942C339.142 25.598 339.556 26.921 340.384 27.911C341.212 28.883 342.301 29.369 343.651 29.369C344.677 29.369 345.559 29.117 346.297 28.613C347.053 28.109 347.611 27.425 347.971 26.561H352.858C352.39 28.721 351.355 30.449 349.753 31.745C348.169 33.023 346.162 33.662 343.732 33.662C341.878 33.662 340.249 33.257 338.845 32.447C337.441 31.619 336.352 30.467 335.578 28.991C334.822 27.515 334.444 25.832 334.444 23.942C334.444 22.052 334.822 20.369 335.578 18.893C336.352 17.417 337.441 16.274 338.845 15.464C340.249 14.636 341.878 14.222 343.732 14.222ZM355.014 14.195C355.014 13.493 355.266 12.917 355.77 12.467C356.274 11.999 356.94 11.765 357.768 11.765C358.596 11.765 359.262 11.999 359.766 12.467C360.27 12.917 360.522 13.493 360.522 14.195C360.522 14.879 360.27 15.455 359.766 15.923C359.262 16.373 358.596 16.598 357.768 16.598C356.94 16.598 356.274 16.373 355.77 15.923C355.266 15.455 355.014 14.879 355.014 14.195ZM360.063 18.434V33.5H355.446V18.434H360.063ZM371.782 29.531V33.5H369.703C367.939 33.5 366.562 33.068 365.572 32.204C364.6 31.322 364.114 29.873 364.114 27.857V22.322H362.089V18.434H364.114V14.735H368.731V18.434H371.755V22.322H368.731V27.938C368.731 28.532 368.848 28.946 369.082 29.18C369.334 29.414 369.748 29.531 370.324 29.531H371.782ZM377.86 18.434L381.478 27.668L384.853 18.434H389.956L380.56 40.682H375.484L379.021 32.933L372.703 18.434H377.86Z" fill="#C9B7AD"/>
<rect x="245" y="9.5" width="9" height="9" fill="#AD7B62"/>
<rect x="245" y="18.5" width="9" height="10" fill="#C9B7AD"/>
<rect x="245" y="28.5" width="9" height="9" fill="#B59381"/>
<rect x="254" y="9.5" width="10" height="9" fill="#C9B7AD"/>
<rect x="254" y="28.5" width="10" height="9" fill="#C9B7AD"/>
<rect x="264" y="9.5" width="9" height="9" fill="#B59381"/>
<rect x="264" y="18.5" width="9" height="10" fill="#C9B7AD"/>
<rect x="264" y="28.5" width="9" height="9" fill="#AD7B62"/>
<rect x="250" y="14.5" width="18" height="18" fill="#F5F1EF"/>
<path d="M513.558 12.656C513.465 12.432 513.339 12.1473 513.18 11.802C513.031 11.4567 512.867 11.0833 512.69 10.682C512.513 10.2807 512.321 9.87 512.116 9.45C511.92 9.02067 511.733 8.61933 511.556 8.246C511.379 7.86333 511.211 7.52267 511.052 7.224C510.903 6.92533 510.781 6.69667 510.688 6.538C510.585 7.63933 510.501 8.834 510.436 10.122C510.371 11.4007 510.315 12.6933 510.268 14H508.938C508.975 13.16 509.017 12.3153 509.064 11.466C509.111 10.6073 509.162 9.76733 509.218 8.946C509.283 8.11533 509.349 7.308 509.414 6.524C509.489 5.74 509.568 4.998 509.652 4.298H510.842C511.094 4.70867 511.365 5.194 511.654 5.754C511.943 6.314 512.233 6.902 512.522 7.518C512.811 8.12467 513.091 8.736 513.362 9.352C513.633 9.95867 513.88 10.514 514.104 11.018C514.328 10.514 514.575 9.95867 514.846 9.352C515.117 8.736 515.397 8.12467 515.686 7.518C515.975 6.902 516.265 6.314 516.554 5.754C516.843 5.194 517.114 4.70867 517.366 4.298H518.556C518.873 7.42467 519.111 10.6587 519.27 14H517.94C517.893 12.6933 517.837 11.4007 517.772 10.122C517.707 8.834 517.623 7.63933 517.52 6.538C517.427 6.69667 517.301 6.92533 517.142 7.224C516.993 7.52267 516.829 7.86333 516.652 8.246C516.475 8.61933 516.283 9.02067 516.078 9.45C515.882 9.87 515.695 10.2807 515.518 10.682C515.341 11.0833 515.173 11.4567 515.014 11.802C514.865 12.1473 514.743 12.432 514.65 12.656H513.558ZM527.741 10.36C527.741 10.9387 527.657 11.4613 527.489 11.928C527.321 12.3947 527.083 12.796 526.775 13.132C526.477 13.468 526.117 13.7293 525.697 13.916C525.277 14.0933 524.82 14.182 524.325 14.182C523.831 14.182 523.373 14.0933 522.953 13.916C522.533 13.7293 522.169 13.468 521.861 13.132C521.563 12.796 521.329 12.3947 521.161 11.928C520.993 11.4613 520.909 10.9387 520.909 10.36C520.909 9.79067 520.993 9.27267 521.161 8.806C521.329 8.33 521.563 7.924 521.861 7.588C522.169 7.252 522.533 6.99533 522.953 6.818C523.373 6.63133 523.831 6.538 524.325 6.538C524.82 6.538 525.277 6.63133 525.697 6.818C526.117 6.99533 526.477 7.252 526.775 7.588C527.083 7.924 527.321 8.33 527.489 8.806C527.657 9.27267 527.741 9.79067 527.741 10.36ZM526.383 10.36C526.383 9.53867 526.197 8.89 525.823 8.414C525.459 7.92867 524.96 7.686 524.325 7.686C523.691 7.686 523.187 7.92867 522.813 8.414C522.449 8.89 522.267 9.53867 522.267 10.36C522.267 11.1813 522.449 11.8347 522.813 12.32C523.187 12.796 523.691 13.034 524.325 13.034C524.96 13.034 525.459 12.796 525.823 12.32C526.197 11.8347 526.383 11.1813 526.383 10.36ZM534.277 8.26C534.118 8.12933 533.89 8.00333 533.591 7.882C533.292 7.76067 532.966 7.7 532.611 7.7C532.238 7.7 531.916 7.77 531.645 7.91C531.384 8.04067 531.169 8.22733 531.001 8.47C530.833 8.70333 530.712 8.98333 530.637 9.31C530.562 9.63667 530.525 9.98667 530.525 10.36C530.525 11.2093 530.735 11.8673 531.155 12.334C531.575 12.7913 532.135 13.02 532.835 13.02C533.19 13.02 533.484 13.006 533.717 12.978C533.96 12.9407 534.146 12.9033 534.277 12.866V8.26ZM534.277 3.36L535.579 3.136V13.79C535.28 13.874 534.898 13.958 534.431 14.042C533.964 14.126 533.428 14.168 532.821 14.168C532.261 14.168 531.757 14.0793 531.309 13.902C530.861 13.7247 530.478 13.4727 530.161 13.146C529.844 12.8193 529.596 12.4227 529.419 11.956C529.251 11.48 529.167 10.948 529.167 10.36C529.167 9.8 529.237 9.28667 529.377 8.82C529.526 8.35333 529.741 7.952 530.021 7.616C530.301 7.28 530.642 7.01867 531.043 6.832C531.454 6.64533 531.92 6.552 532.443 6.552C532.863 6.552 533.232 6.608 533.549 6.72C533.876 6.832 534.118 6.93933 534.277 7.042V3.36ZM537.411 10.374C537.411 9.73 537.505 9.17 537.691 8.694C537.878 8.20867 538.125 7.80733 538.433 7.49C538.741 7.17267 539.096 6.93467 539.497 6.776C539.899 6.61733 540.309 6.538 540.729 6.538C541.709 6.538 542.461 6.846 542.983 7.462C543.506 8.06867 543.767 8.99733 543.767 10.248C543.767 10.304 543.767 10.3787 543.767 10.472C543.767 10.556 543.763 10.6353 543.753 10.71H538.769C538.825 11.466 539.045 12.04 539.427 12.432C539.81 12.824 540.407 13.02 541.219 13.02C541.677 13.02 542.059 12.9827 542.367 12.908C542.685 12.824 542.923 12.7447 543.081 12.67L543.263 13.762C543.105 13.846 542.825 13.9347 542.423 14.028C542.031 14.1213 541.583 14.168 541.079 14.168C540.445 14.168 539.894 14.0747 539.427 13.888C538.97 13.692 538.592 13.426 538.293 13.09C537.995 12.754 537.771 12.3573 537.621 11.9C537.481 11.4333 537.411 10.9247 537.411 10.374ZM542.409 9.66C542.419 9.072 542.269 8.59133 541.961 8.218C541.663 7.83533 541.247 7.644 540.715 7.644C540.417 7.644 540.151 7.70467 539.917 7.826C539.693 7.938 539.502 8.08733 539.343 8.274C539.185 8.46067 539.059 8.67533 538.965 8.918C538.881 9.16067 538.825 9.408 538.797 9.66H542.409ZM548.326 6.566C548.438 6.566 548.564 6.57533 548.704 6.594C548.853 6.60333 548.998 6.622 549.138 6.65C549.278 6.66867 549.404 6.692 549.516 6.72C549.637 6.73867 549.726 6.75733 549.782 6.776L549.558 7.91C549.455 7.87267 549.282 7.83067 549.04 7.784C548.806 7.728 548.503 7.7 548.13 7.7C547.887 7.7 547.644 7.728 547.402 7.784C547.168 7.83067 547.014 7.86333 546.94 7.882V14H545.638V7.028C545.946 6.916 546.328 6.81333 546.786 6.72C547.243 6.61733 547.756 6.566 548.326 6.566ZM551.038 6.93C551.337 6.85533 551.733 6.776 552.228 6.692C552.723 6.608 553.292 6.566 553.936 6.566C554.515 6.566 554.995 6.65 555.378 6.818C555.761 6.97667 556.064 7.20533 556.288 7.504C556.521 7.79333 556.685 8.14333 556.778 8.554C556.871 8.96467 556.918 9.41733 556.918 9.912V14H555.616V10.192C555.616 9.744 555.583 9.36133 555.518 9.044C555.462 8.72667 555.364 8.47 555.224 8.274C555.084 8.078 554.897 7.938 554.664 7.854C554.431 7.76067 554.141 7.714 553.796 7.714C553.656 7.714 553.511 7.71867 553.362 7.728C553.213 7.73733 553.068 7.75133 552.928 7.77C552.797 7.77933 552.676 7.79333 552.564 7.812C552.461 7.83067 552.387 7.84467 552.34 7.854V14H551.038V6.93Z" fill="#C9B7AD"/>
<path d="M521.32 40C521.1 39.28 520.85 38.54 520.57 37.78C520.31 37.02 520.05 36.26 519.79 35.5H511.69C511.43 36.26 511.16 37.02 510.88 37.78C510.62 38.54 510.38 39.28 510.16 40H505.3C506.08 37.76 506.82 35.69 507.52 33.79C508.22 31.89 508.9 30.1 509.56 28.42C510.24 26.74 510.9 25.15 511.54 23.65C512.2 22.13 512.88 20.65 513.58 19.21H518.05C518.73 20.65 519.4 22.13 520.06 23.65C520.72 25.15 521.38 26.74 522.04 28.42C522.72 30.1 523.41 31.89 524.11 33.79C524.81 35.69 525.55 37.76 526.33 40H521.32ZM515.71 23.92C515.61 24.22 515.46 24.63 515.26 25.15C515.06 25.67 514.83 26.27 514.57 26.95C514.31 27.63 514.02 28.38 513.7 29.2C513.4 30.02 513.09 30.88 512.77 31.78H518.68C518.36 30.88 518.05 30.02 517.75 29.2C517.45 28.38 517.16 27.63 516.88 26.95C516.62 26.27 516.39 25.67 516.19 25.15C515.99 24.63 515.83 24.22 515.71 23.92ZM538.231 28.18C537.831 28.08 537.361 27.98 536.821 27.88C536.281 27.76 535.701 27.7 535.081 27.7C534.801 27.7 534.461 27.73 534.061 27.79C533.681 27.83 533.391 27.88 533.191 27.94V40H528.721V25.06C529.521 24.78 530.461 24.52 531.541 24.28C532.641 24.02 533.861 23.89 535.201 23.89C535.441 23.89 535.731 23.91 536.071 23.95C536.411 23.97 536.751 24.01 537.091 24.07C537.431 24.11 537.771 24.17 538.111 24.25C538.451 24.31 538.741 24.39 538.981 24.49L538.231 28.18ZM540.334 32.11C540.334 30.97 540.514 29.9 540.874 28.9C541.254 27.88 541.794 27 542.494 26.26C543.194 25.5 544.044 24.9 545.044 24.46C546.044 24.02 547.184 23.8 548.464 23.8C549.304 23.8 550.074 23.88 550.774 24.04C551.474 24.18 552.154 24.39 552.814 24.67L551.884 28.24C551.464 28.08 551.004 27.94 550.504 27.82C550.004 27.7 549.444 27.64 548.824 27.64C547.504 27.64 546.514 28.05 545.854 28.87C545.214 29.69 544.894 30.77 544.894 32.11C544.894 33.53 545.194 34.63 545.794 35.41C546.414 36.19 547.484 36.58 549.004 36.58C549.544 36.58 550.124 36.53 550.744 36.43C551.364 36.33 551.934 36.17 552.454 35.95L553.084 39.61C552.564 39.83 551.914 40.02 551.134 40.18C550.354 40.34 549.494 40.42 548.554 40.42C547.114 40.42 545.874 40.21 544.834 39.79C543.794 39.35 542.934 38.76 542.254 38.02C541.594 37.28 541.104 36.41 540.784 35.41C540.484 34.39 540.334 33.29 540.334 32.11ZM556.084 40V17.44L560.554 16.72V24.28C560.854 24.18 561.234 24.09 561.694 24.01C562.174 23.91 562.634 23.86 563.074 23.86C564.354 23.86 565.414 24.04 566.254 24.4C567.114 24.74 567.794 25.23 568.294 25.87C568.814 26.51 569.174 27.27 569.374 28.15C569.594 29.03 569.704 30.01 569.704 31.09V40H565.234V31.63C565.234 30.19 565.044 29.17 564.664 28.57C564.304 27.97 563.624 27.67 562.624 27.67C562.224 27.67 561.844 27.71 561.484 27.79C561.144 27.85 560.834 27.92 560.554 28V40H556.084ZM587.292 24.22C586.392 27.26 585.452 30.11 584.472 32.77C583.492 35.43 582.422 38.01 581.262 40.51C580.842 41.41 580.422 42.17 580.002 42.79C579.582 43.43 579.122 43.95 578.622 44.35C578.122 44.77 577.552 45.07 576.912 45.25C576.292 45.45 575.562 45.55 574.722 45.55C574.022 45.55 573.372 45.48 572.772 45.34C572.192 45.22 571.712 45.08 571.332 44.92L572.112 41.35C572.572 41.51 572.982 41.62 573.342 41.68C573.702 41.74 574.082 41.77 574.482 41.77C575.282 41.77 575.892 41.55 576.312 41.11C576.752 40.69 577.122 40.1 577.422 39.34C576.402 37.34 575.382 35.1 574.362 32.62C573.342 30.12 572.382 27.32 571.482 24.22H576.222C576.422 25 576.652 25.85 576.912 26.77C577.192 27.67 577.482 28.59 577.782 29.53C578.082 30.45 578.382 31.35 578.682 32.23C579.002 33.11 579.302 33.91 579.582 34.63C579.842 33.91 580.112 33.11 580.392 32.23C580.672 31.35 580.942 30.45 581.202 29.53C581.482 28.59 581.742 27.67 581.982 26.77C582.242 25.85 582.472 25 582.672 24.22H587.292Z" fill="#C9B7AD"/>
<path d="M609 43V30.0565L599 21V43H609Z" fill="#C18F76"/>
<path d="M620.951 42.6862V29.9273L611.295 21V42.6862H620.951Z" fill="#C9B7AD"/>
<path d="M771.371 40.8112H750.276C746.81 40.8112 744 38.0298 744 34.5978V13.7134C744 10.2814 746.81 7.5 750.276 7.5H771.371C774.838 7.5 777.648 10.2814 777.648 13.7134V34.5978C777.648 38.0298 774.838 40.8112 771.371 40.8112Z" fill="#C78A6C"/>
<path d="M766.885 24.4621C767.485 25.207 767.79 26.0744 767.79 27.055C767.79 28.4975 767.304 29.629 766.333 30.4304C765.362 31.2318 763.971 31.6467 762.162 31.6467H754.257V14.8167H761.971C763.704 14.8167 765.038 15.1938 765.981 15.9387C766.924 16.6835 767.4 17.7489 767.4 19.1255C767.4 20.1438 767.124 20.983 766.581 21.6618C766.038 22.3407 765.324 22.7744 764.438 22.9818C765.476 23.227 766.285 23.7172 766.885 24.4621ZM758.362 21.6995H761.057C762.485 21.6995 763.2 21.0961 763.2 19.8892C763.2 18.6824 762.466 18.0789 761.009 18.0789H758.362V21.6995ZM763.581 26.4893C763.581 25.8858 763.381 25.4144 762.981 25.075C762.581 24.7355 762.009 24.5658 761.276 24.5658H758.371V28.3467H761.304C762.819 28.3373 763.581 27.7244 763.581 26.4893Z" fill="white"/>
<path d="M797.143 31.6467L793.467 25.2918H792.533V31.6467H788.419V14.8167H795.438C796.781 14.8167 797.924 15.0429 798.848 15.5049C799.781 15.9669 800.476 16.5987 800.943 17.4001C801.409 18.2015 801.638 19.1161 801.638 20.1532C801.638 21.379 801.295 22.4161 800.619 23.2741C799.933 24.1321 798.952 24.7167 797.648 25.0372L801.686 31.6561H797.143V31.6467ZM792.533 22.5104H795.076C795.895 22.5104 796.495 22.3312 796.876 21.973C797.257 21.6147 797.457 21.0867 797.457 20.389C797.457 19.7195 797.257 19.2009 796.867 18.8144C796.476 18.4372 795.876 18.2392 795.076 18.2392H792.533V22.5104Z" fill="#C9B7AD"/>
<path d="M820.248 28.5832H813.876L812.819 31.6569H808.495L814.724 14.9495H819.457L825.686 31.6569H821.314L820.248 28.5832ZM819.19 25.4812L817.076 19.296L814.933 25.4812H819.19Z" fill="#C9B7AD"/>
<path d="M848.381 31.6467H844.267L837.391 21.3129V31.6467H833.276V14.8167H837.391L844.267 25.2447V14.8167H848.381V31.6467Z" fill="#C9B7AD"/>
<path d="M871.448 27.5927C870.733 28.8656 869.705 29.865 868.371 30.5816C867.029 31.2982 865.457 31.6565 863.648 31.6565H857.229V14.8264H863.648C865.476 14.8264 867.057 15.1753 868.381 15.873C869.714 16.5707 870.733 17.5513 871.448 18.8241C872.162 20.097 872.514 21.549 872.514 23.2084C872.514 24.849 872.152 26.3104 871.448 27.5927ZM867.019 26.7441C867.905 25.905 868.352 24.717 868.352 23.199C868.352 21.6716 867.905 20.493 867.019 19.6539C866.133 18.8147 864.886 18.3904 863.276 18.3904H861.333V28.0076H863.276C864.886 28.0076 866.133 27.5927 867.019 26.7441Z" fill="#C9B7AD"/>
<path d="M994 35.9459C997.058 37.212 1000.17 38.1903 1003.35 38.9384C1006.5 39.7211 1009.71 40.2735 1012.92 40.6188C1014.52 40.8375 1016.14 40.8605 1017.73 41.0101C1019.34 41.0216 1020.95 41.1482 1022.55 41.0562L1024.96 40.9986C1025.76 40.9871 1026.56 40.8835 1027.37 40.8375C1028.17 40.7684 1028.97 40.7339 1029.76 40.6303L1032.14 40.2965C1035.34 39.9512 1038.45 39.2146 1041.54 38.3284C1044.67 37.4767 1047.62 36.3487 1050.75 35.1748C1053.94 34.0123 1057.41 33.2527 1060.92 33.621C1062.65 33.8397 1064.39 34.3921 1065.81 35.405C1067.24 36.4063 1068.27 37.8335 1068.92 39.3297C1067.94 37.9946 1066.72 36.9012 1065.31 36.2221C1063.91 35.5431 1062.36 35.2668 1060.83 35.3129C1057.72 35.3589 1054.66 36.3833 1051.79 37.6723C1048.87 39.0995 1045.71 40.3886 1042.53 41.459C1039.32 42.4833 1036 43.3005 1032.64 43.7149C1025.96 44.5896 1019.11 44.6011 1012.51 43.2775C1009.19 42.679 1005.96 41.7467 1002.84 40.5613C999.732 39.3297 996.697 37.891 994 35.9459Z" fill="#C78A6C"/>
<path d="M998.556 25.5V12.5989H994.311V10.2382H1005.39V12.5989H1001.14V25.5H998.556ZM1007.31 25.5L1005.01 23.2014V16.989L1007.31 14.6697H1012.28L1014.58 16.989V21.0064H1007.52V22.5388L1008.43 23.4499H1014.39V25.5H1007.31ZM1007.52 19.0805H1012.07V17.5274L1011.16 16.6163H1008.43L1007.52 17.5274V19.0805ZM1019.57 25.5L1017.27 23.2014V16.989L1019.57 14.6697H1024.74L1026.81 16.6991V18.7285H1024.31V17.5274L1023.4 16.6163H1020.68L1019.77 17.5274V22.5388L1020.68 23.4499H1026.73V25.5H1019.57ZM1029.3 25.5V10.2382H1031.81V16.2642L1033.4 14.6697H1037.28L1039.58 16.989V25.5H1037.07V17.5688L1036.2 16.6163H1034.03L1031.81 18.8113V25.5H1029.3ZM1047.59 25.5V10.2382H1050.18V16.3678H1056.87V10.2382H1059.45V25.5H1056.87V18.6457H1050.18V25.5H1047.59ZM1064.76 25.5L1062.46 23.2014V16.989L1064.76 14.6697H1070.19L1072.49 16.989V23.2014L1070.19 25.5H1064.76ZM1065.88 23.5742L1069.07 23.5535L1069.98 22.6423V17.5274L1069.07 16.6163H1065.88L1064.97 17.5274V22.6423L1065.88 23.5742ZM1077.59 25.5L1075.29 23.2014V14.6697H1077.79V22.6009L1078.66 23.5535H1080.76L1082.95 21.3998V14.6697H1085.46V25.5H1082.95V23.9469L1081.38 25.5H1077.59ZM1088.7 25.5V23.4499H1094.38L1095.2 22.6009V21.8968L1094.23 20.9235H1090.21L1088.1 18.8527V16.7612L1090.17 14.6697H1096.55V16.7198H1091.41L1090.61 17.5274V18.0037L1091.54 18.9356H1095.6L1097.71 21.0064V23.4292L1095.64 25.5H1088.7ZM1102.3 25.5L1100 23.2014V16.989L1102.3 14.6697H1107.27L1109.57 16.989V21.0064H1102.5V22.5388L1103.41 23.4499H1109.38V25.5H1102.3ZM1102.5 19.0805H1107.06V17.5274L1106.15 16.6163H1103.41L1102.5 17.5274V19.0805Z" fill="#C9B7AD"/>
<path d="M156.83 131.27C155.69 131.27 154.55 131.23 153.41 131.15C152.29 131.09 151.12 130.93 149.9 130.67V110.51C150.86 110.33 151.91 110.2 153.05 110.12C154.19 110.02 155.25 109.97 156.23 109.97C157.55 109.97 158.76 110.07 159.86 110.27C160.98 110.45 161.94 110.77 162.74 111.23C163.54 111.69 164.16 112.3 164.6 113.06C165.06 113.8 165.29 114.72 165.29 115.82C165.29 117.48 164.49 118.79 162.89 119.75C164.21 120.25 165.11 120.93 165.59 121.79C166.07 122.65 166.31 123.62 166.31 124.7C166.31 126.88 165.51 128.52 163.91 129.62C162.33 130.72 159.97 131.27 156.83 131.27ZM154.46 121.94V127.31C154.8 127.35 155.17 127.38 155.57 127.4C155.97 127.42 156.41 127.43 156.89 127.43C158.29 127.43 159.42 127.23 160.28 126.83C161.14 126.43 161.57 125.69 161.57 124.61C161.57 123.65 161.21 122.97 160.49 122.57C159.77 122.15 158.74 121.94 157.4 121.94H154.46ZM154.46 118.37H156.74C158.18 118.37 159.21 118.19 159.83 117.83C160.45 117.45 160.76 116.85 160.76 116.03C160.76 115.19 160.44 114.6 159.8 114.26C159.16 113.92 158.22 113.75 156.98 113.75C156.58 113.75 156.15 113.76 155.69 113.78C155.23 113.78 154.82 113.8 154.46 113.84V118.37ZM174.226 131H169.756V115.22H174.226V131ZM174.646 110.66C174.646 111.48 174.376 112.13 173.836 112.61C173.316 113.07 172.696 113.3 171.976 113.3C171.256 113.3 170.626 113.07 170.086 112.61C169.566 112.13 169.306 111.48 169.306 110.66C169.306 109.84 169.566 109.2 170.086 108.74C170.626 108.26 171.256 108.02 171.976 108.02C172.696 108.02 173.316 108.26 173.836 108.74C174.376 109.2 174.646 109.84 174.646 110.66ZM178.278 111.29L182.748 110.57V115.22H188.118V118.94H182.748V124.49C182.748 125.43 182.908 126.18 183.228 126.74C183.568 127.3 184.238 127.58 185.238 127.58C185.718 127.58 186.208 127.54 186.708 127.46C187.228 127.36 187.698 127.23 188.118 127.07L188.748 130.55C188.208 130.77 187.608 130.96 186.948 131.12C186.288 131.28 185.478 131.36 184.518 131.36C183.298 131.36 182.288 131.2 181.488 130.88C180.688 130.54 180.048 130.08 179.568 129.5C179.088 128.9 178.748 128.18 178.548 127.34C178.368 126.5 178.278 125.57 178.278 124.55V111.29Z" fill="#C9B7AD"/>
<path d="M229.63 127.88C230.07 127.88 230.49 127.87 230.89 127.85C231.29 127.83 231.61 127.8 231.85 127.76V124.37C231.67 124.33 231.4 124.29 231.04 124.25C230.68 124.21 230.35 124.19 230.05 124.19C229.63 124.19 229.23 124.22 228.85 124.28C228.49 124.32 228.17 124.41 227.89 124.55C227.61 124.69 227.39 124.88 227.23 125.12C227.07 125.36 226.99 125.66 226.99 126.02C226.99 126.72 227.22 127.21 227.68 127.49C228.16 127.75 228.81 127.88 229.63 127.88ZM229.27 114.8C230.59 114.8 231.69 114.95 232.57 115.25C233.45 115.55 234.15 115.98 234.67 116.54C235.21 117.1 235.59 117.78 235.81 118.58C236.03 119.38 236.14 120.27 236.14 121.25V130.55C235.5 130.69 234.61 130.85 233.47 131.03C232.33 131.23 230.95 131.33 229.33 131.33C228.31 131.33 227.38 131.24 226.54 131.06C225.72 130.88 225.01 130.59 224.41 130.19C223.81 129.77 223.35 129.23 223.03 128.57C222.71 127.91 222.55 127.1 222.55 126.14C222.55 125.22 222.73 124.44 223.09 123.8C223.47 123.16 223.97 122.65 224.59 122.27C225.21 121.89 225.92 121.62 226.72 121.46C227.52 121.28 228.35 121.19 229.21 121.19C229.79 121.19 230.3 121.22 230.74 121.28C231.2 121.32 231.57 121.38 231.85 121.46V121.04C231.85 120.28 231.62 119.67 231.16 119.21C230.7 118.75 229.9 118.52 228.76 118.52C228 118.52 227.25 118.58 226.51 118.7C225.77 118.8 225.13 118.95 224.59 119.15L224.02 115.55C224.28 115.47 224.6 115.39 224.98 115.31C225.38 115.21 225.81 115.13 226.27 115.07C226.73 114.99 227.21 114.93 227.71 114.89C228.23 114.83 228.75 114.8 229.27 114.8ZM246.452 120.02L249.572 115.22H254.192L248.792 122.81C249.992 124.31 251.082 125.77 252.062 127.19C253.042 128.61 253.822 129.88 254.402 131H249.602C249.442 130.7 249.242 130.33 249.002 129.89C248.762 129.43 248.492 128.96 248.192 128.48C247.892 127.98 247.572 127.49 247.232 127.01C246.912 126.51 246.592 126.06 246.272 125.66C245.972 126.04 245.662 126.46 245.342 126.92C245.042 127.38 244.752 127.85 244.472 128.33C244.192 128.79 243.912 129.25 243.632 129.71C243.372 130.17 243.142 130.6 242.942 131H238.382C238.622 130.5 238.952 129.91 239.372 129.23C239.792 128.55 240.242 127.85 240.722 127.13C241.222 126.39 241.742 125.66 242.282 124.94C242.822 124.2 243.352 123.51 243.872 122.87C242.972 121.61 242.072 120.34 241.172 119.06C240.272 117.76 239.382 116.48 238.502 115.22H243.332L246.452 120.02Z" fill="#C9B7AD"/>
<path d="M200 111L202.936 111.612L205.584 113.387L207.686 116.153L209.035 119.637L209.5 123.5L209.035 127.363L207.686 130.847L205.584 133.613L202.936 135.388L200 136L197.064 135.388L194.416 133.613L192.314 130.847L190.965 127.363L190.5 123.5L190.965 119.637L192.314 116.153L194.416 113.387L197.064 111.612L200 111Z" fill="#C9B7AD"/>
<path d="M210 111L212.936 111.612L215.584 113.387L217.686 116.153L219.035 119.637L219.5 123.5L219.035 127.363L217.686 130.847L215.584 133.613L212.936 135.388L210 136L207.064 135.388L204.416 133.613L202.314 130.847L200.965 127.363L200.5 123.5L200.965 119.637L202.314 116.153L204.416 113.387L207.064 111.612L210 111Z" fill="#C18F76"/>
<path d="M434.108 111.884C434.036 112.802 433.982 113.684 433.946 114.53C433.928 115.376 433.919 116.024 433.919 116.474C433.919 116.87 433.928 117.248 433.946 117.608C433.964 117.968 433.982 118.274 434 118.526H433.379C433.091 117.014 432.722 115.817 432.272 114.935C431.84 114.053 431.318 113.432 430.706 113.072C430.094 112.694 429.374 112.505 428.546 112.505H427.925V127.922C427.925 128.642 427.997 129.182 428.141 129.542C428.303 129.902 428.591 130.145 429.005 130.271C429.419 130.379 430.022 130.442 430.814 130.46V131C430.256 130.982 429.509 130.964 428.573 130.946C427.655 130.928 426.692 130.919 425.684 130.919C424.694 130.919 423.758 130.928 422.876 130.946C421.994 130.964 421.283 130.982 420.743 131V130.46C421.553 130.442 422.165 130.379 422.579 130.271C422.993 130.145 423.272 129.902 423.416 129.542C423.56 129.182 423.632 128.642 423.632 127.922V112.505H423.038C422.21 112.505 421.49 112.694 420.878 113.072C420.266 113.432 419.744 114.053 419.312 114.935C418.88 115.799 418.502 116.996 418.178 118.526H417.557C417.593 118.274 417.611 117.968 417.611 117.608C417.629 117.248 417.638 116.87 417.638 116.474C417.638 116.024 417.62 115.376 417.584 114.53C417.566 113.684 417.521 112.802 417.449 111.884C418.277 111.902 419.177 111.92 420.149 111.938C421.139 111.956 422.129 111.965 423.119 111.965C424.109 111.965 425 111.965 425.792 111.965C426.602 111.965 427.493 111.965 428.465 111.965C429.455 111.965 430.445 111.956 431.435 111.938C432.425 111.92 433.316 111.902 434.108 111.884ZM438.498 131.189C437.688 131.189 437.013 131.036 436.473 130.73C435.933 130.424 435.537 130.019 435.285 129.515C435.033 128.993 434.907 128.426 434.907 127.814C434.907 127.04 435.078 126.41 435.42 125.924C435.78 125.438 436.239 125.042 436.797 124.736C437.355 124.43 437.94 124.178 438.552 123.98C439.182 123.782 439.776 123.593 440.334 123.413C440.91 123.215 441.369 122.99 441.711 122.738C442.071 122.468 442.251 122.126 442.251 121.712V119.606C442.251 119.138 442.17 118.724 442.008 118.364C441.864 117.986 441.63 117.698 441.306 117.5C441 117.302 440.595 117.203 440.091 117.203C439.731 117.203 439.371 117.257 439.011 117.365C438.651 117.455 438.354 117.617 438.12 117.851C438.624 118.031 439.011 118.31 439.281 118.688C439.569 119.048 439.713 119.462 439.713 119.93C439.713 120.542 439.497 121.028 439.065 121.388C438.651 121.748 438.156 121.928 437.58 121.928C436.932 121.928 436.437 121.73 436.095 121.334C435.771 120.92 435.609 120.425 435.609 119.849C435.609 119.327 435.735 118.895 435.987 118.553C436.257 118.211 436.626 117.887 437.094 117.581C437.598 117.293 438.201 117.068 438.903 116.906C439.623 116.744 440.397 116.663 441.225 116.663C442.053 116.663 442.8 116.753 443.466 116.933C444.132 117.095 444.69 117.401 445.14 117.851C445.554 118.265 445.824 118.778 445.95 119.39C446.076 119.984 446.139 120.74 446.139 121.658V129.002C446.139 129.452 446.184 129.767 446.274 129.947C446.364 130.109 446.517 130.19 446.733 130.19C446.895 130.19 447.048 130.145 447.192 130.055C447.354 129.965 447.525 129.857 447.705 129.731L447.975 130.19C447.597 130.514 447.156 130.766 446.652 130.946C446.166 131.108 445.617 131.189 445.005 131.189C444.339 131.189 443.808 131.099 443.412 130.919C443.016 130.721 442.728 130.46 442.548 130.136C442.386 129.812 442.305 129.434 442.305 129.002C441.873 129.686 441.351 130.226 440.739 130.622C440.127 131 439.38 131.189 438.498 131.189ZM440.415 129.461C440.775 129.461 441.099 129.38 441.387 129.218C441.693 129.038 441.981 128.75 442.251 128.354V122.819C442.089 123.089 441.864 123.332 441.576 123.548C441.288 123.764 440.982 123.989 440.658 124.223C440.334 124.439 440.019 124.682 439.713 124.952C439.425 125.222 439.191 125.555 439.011 125.951C438.831 126.347 438.741 126.824 438.741 127.382C438.741 128.084 438.894 128.606 439.2 128.948C439.506 129.29 439.911 129.461 440.415 129.461ZM458.035 116.663C458.611 116.663 459.079 116.789 459.439 117.041C459.799 117.275 460.06 117.581 460.222 117.959C460.402 118.337 460.492 118.733 460.492 119.147C460.492 119.813 460.294 120.362 459.898 120.794C459.52 121.208 459.016 121.415 458.386 121.415C457.756 121.415 457.261 121.262 456.901 120.956C456.559 120.632 456.388 120.209 456.388 119.687C456.388 119.183 456.496 118.769 456.712 118.445C456.946 118.103 457.234 117.815 457.576 117.581C457.324 117.509 457.072 117.518 456.82 117.608C456.478 117.662 456.154 117.806 455.848 118.04C455.542 118.256 455.281 118.535 455.065 118.877C454.849 119.201 454.678 119.561 454.552 119.957C454.426 120.335 454.363 120.704 454.363 121.064V128.219C454.363 129.083 454.57 129.668 454.984 129.974C455.416 130.28 456.055 130.433 456.901 130.433V131C456.487 130.982 455.884 130.964 455.092 130.946C454.3 130.91 453.472 130.892 452.608 130.892C451.888 130.892 451.159 130.91 450.421 130.946C449.683 130.964 449.125 130.982 448.747 131V130.433C449.377 130.433 449.818 130.298 450.07 130.028C450.34 129.758 450.475 129.245 450.475 128.489V119.984C450.475 119.174 450.349 118.58 450.097 118.202C449.863 117.806 449.413 117.608 448.747 117.608V117.041C449.323 117.095 449.881 117.122 450.421 117.122C451.177 117.122 451.879 117.095 452.527 117.041C453.193 116.969 453.805 116.87 454.363 116.744V119.255C454.579 118.769 454.867 118.328 455.227 117.932C455.587 117.536 456.001 117.23 456.469 117.014C456.937 116.78 457.459 116.663 458.035 116.663ZM466.588 136.076C465.472 136.076 464.473 135.977 463.591 135.779C462.727 135.599 462.043 135.311 461.539 134.915C461.053 134.537 460.81 134.069 460.81 133.511C460.81 132.953 461.062 132.449 461.566 131.999C462.07 131.567 462.817 131.225 463.807 130.973L464.05 131.405C463.708 131.675 463.456 131.963 463.294 132.269C463.15 132.593 463.078 132.926 463.078 133.268C463.078 134.024 463.42 134.6 464.104 134.996C464.806 135.41 465.751 135.617 466.939 135.617C467.749 135.617 468.469 135.509 469.099 135.293C469.747 135.077 470.251 134.753 470.611 134.321C470.989 133.889 471.178 133.358 471.178 132.728C471.178 132.188 470.98 131.729 470.584 131.351C470.188 130.991 469.396 130.811 468.208 130.811H466.534C465.796 130.811 465.148 130.73 464.59 130.568C464.05 130.406 463.627 130.154 463.321 129.812C463.015 129.452 462.862 129.002 462.862 128.462C462.862 127.706 463.159 127.04 463.753 126.464C464.347 125.888 465.229 125.348 466.399 124.844L466.669 125.06C466.327 125.276 466.003 125.51 465.697 125.762C465.409 125.996 465.265 126.302 465.265 126.68C465.265 127.256 465.625 127.544 466.345 127.544H469.288C470.278 127.544 471.16 127.661 471.934 127.895C472.726 128.129 473.347 128.516 473.797 129.056C474.265 129.578 474.499 130.262 474.499 131.108C474.499 131.99 474.211 132.809 473.635 133.565C473.077 134.321 472.213 134.924 471.043 135.374C469.873 135.842 468.388 136.076 466.588 136.076ZM466.858 125.249C465.832 125.249 464.914 125.096 464.104 124.79C463.294 124.484 462.655 124.016 462.187 123.386C461.719 122.756 461.485 121.946 461.485 120.956C461.485 119.966 461.719 119.156 462.187 118.526C462.655 117.878 463.294 117.41 464.104 117.122C464.914 116.816 465.832 116.663 466.858 116.663C467.884 116.663 468.802 116.816 469.612 117.122C470.422 117.41 471.061 117.878 471.529 118.526C471.997 119.156 472.231 119.966 472.231 120.956C472.231 121.946 471.997 122.756 471.529 123.386C471.061 124.016 470.422 124.484 469.612 124.79C468.802 125.096 467.884 125.249 466.858 125.249ZM466.858 124.763C467.344 124.763 467.722 124.493 467.992 123.953C468.262 123.395 468.397 122.396 468.397 120.956C468.397 119.516 468.262 118.526 467.992 117.986C467.722 117.428 467.344 117.149 466.858 117.149C466.39 117.149 466.012 117.428 465.724 117.986C465.454 118.526 465.319 119.516 465.319 120.956C465.319 122.396 465.454 123.395 465.724 123.953C466.012 124.493 466.39 124.763 466.858 124.763ZM471.07 118.985L470.53 118.796C470.8 118.094 471.232 117.509 471.826 117.041C472.438 116.573 473.095 116.339 473.797 116.339C474.373 116.339 474.805 116.501 475.093 116.825C475.399 117.131 475.552 117.536 475.552 118.04C475.552 118.58 475.408 118.985 475.12 119.255C474.832 119.507 474.508 119.633 474.148 119.633C473.842 119.633 473.554 119.525 473.284 119.309C473.032 119.093 472.888 118.769 472.852 118.337C472.816 117.887 472.969 117.311 473.311 116.609L473.5 116.771C472.816 117.023 472.303 117.32 471.961 117.662C471.619 117.986 471.322 118.427 471.07 118.985ZM482.818 116.663C484.402 116.663 485.644 117.131 486.544 118.067C487.444 119.003 487.894 120.533 487.894 122.657H479.011L478.957 122.144H484.492C484.51 121.262 484.456 120.452 484.33 119.714C484.204 118.958 484.006 118.355 483.736 117.905C483.466 117.455 483.106 117.23 482.656 117.23C482.026 117.23 481.486 117.626 481.036 118.418C480.604 119.21 480.343 120.524 480.253 122.36L480.334 122.522C480.316 122.738 480.298 122.963 480.28 123.197C480.28 123.431 480.28 123.674 480.28 123.926C480.28 125.168 480.451 126.176 480.793 126.95C481.153 127.724 481.603 128.291 482.143 128.651C482.683 128.993 483.232 129.164 483.79 129.164C484.168 129.164 484.555 129.11 484.951 129.002C485.365 128.876 485.779 128.66 486.193 128.354C486.607 128.03 486.994 127.58 487.354 127.004L487.84 127.166C487.624 127.85 487.282 128.516 486.814 129.164C486.346 129.812 485.752 130.343 485.032 130.757C484.312 131.171 483.448 131.378 482.44 131.378C481.216 131.378 480.136 131.117 479.2 130.595C478.264 130.073 477.526 129.281 476.986 128.219C476.464 127.157 476.203 125.807 476.203 124.169C476.203 122.495 476.482 121.1 477.04 119.984C477.616 118.868 478.399 118.04 479.389 117.5C480.397 116.942 481.54 116.663 482.818 116.663ZM494.939 112.613V117.041H498.125V117.581H494.939V128.489C494.939 129.029 495.038 129.416 495.236 129.65C495.434 129.866 495.731 129.974 496.127 129.974C496.451 129.974 496.775 129.857 497.099 129.623C497.423 129.371 497.711 128.948 497.963 128.354L498.422 128.597C498.134 129.407 497.693 130.073 497.099 130.595C496.523 131.117 495.731 131.378 494.723 131.378C494.129 131.378 493.607 131.297 493.157 131.135C492.707 130.991 492.329 130.766 492.023 130.46C491.627 130.064 491.366 129.578 491.24 129.002C491.114 128.408 491.051 127.643 491.051 126.707V117.581H488.783V117.041H491.051V113.477C491.807 113.477 492.5 113.414 493.13 113.288C493.778 113.144 494.381 112.919 494.939 112.613Z" fill="#C9B7AD"/>
<rect x="385.5" y="107" width="26.2301" height="26" rx="5" fill="#C9B7AD"/>
<ellipse cx="398.615" cy="120" rx="5.04425" ry="5" fill="#C18F76"/>
<path d="M398.615 114.4V113M398.615 127V125.6M404.264 120H405.677M391.553 120H392.965M398.615 114.96C397.609 114.96 396.626 115.256 395.79 115.809C394.954 116.363 394.302 117.15 393.917 118.071C393.532 118.992 393.432 120.006 393.628 120.983C393.824 121.961 394.308 122.859 395.019 123.564C395.73 124.269 396.636 124.749 397.623 124.943C398.609 125.138 399.631 125.038 400.56 124.656C401.49 124.275 402.284 123.629 402.842 122.8C403.401 121.971 403.699 120.997 403.699 120C403.699 118.663 403.164 117.381 402.21 116.436C401.256 115.491 399.963 114.96 398.615 114.96Z" stroke="white" stroke-width="2" stroke-linecap="square" stroke-linejoin="round"/>
<path d="M634.5 123.744V101H648.03V123.732H634.5V123.744ZM646.391 118.452L646.739 115.94L645.481 115.818L645.1 117.752C644.314 118.141 643.348 118.33 642.191 118.33C640.619 118.33 639.373 117.841 638.464 116.852C637.543 115.862 637.094 114.562 637.094 112.939C637.094 111.36 637.543 110.06 638.43 109.037C639.317 108.014 640.485 107.503 641.933 107.503C642.674 107.503 643.303 107.592 643.808 107.759C644.314 107.925 644.774 108.148 645.212 108.437L645.582 110.349L646.862 110.226L646.492 107.714C645.953 107.258 645.313 106.892 644.572 106.603C643.831 106.325 642.91 106.18 641.821 106.18C640.53 106.18 639.418 106.491 638.486 107.125C637.554 107.759 636.824 108.592 636.308 109.626C635.791 110.671 635.533 111.794 635.533 112.994C635.533 114.895 636.128 116.485 637.318 117.752C638.509 119.019 640.058 119.653 641.978 119.653C643.864 119.653 645.335 119.253 646.391 118.452Z" fill="#C9B7AD"/>
<path d="M652.623 123.744V101H658.439V123.732H652.623V123.744ZM653.241 119.453H657.833V118.308H656.25V105.613H653.218V106.758H654.824V118.308H653.241V119.453Z" fill="#C9B7AD"/>
<path d="M663.031 123.744V101H673.249V123.732H663.031V123.744ZM664.884 111.182L664.558 113.25L665.737 113.394L666.085 111.849C666.591 111.605 667.163 111.482 667.837 111.482C668.645 111.482 669.196 111.683 669.476 112.083C669.757 112.483 669.892 113.005 669.892 113.65V114.45C669.645 114.428 669.387 114.406 669.106 114.395C668.825 114.384 668.556 114.373 668.286 114.373C667.276 114.373 666.31 114.551 665.412 114.906C664.513 115.262 664.064 116.007 664.064 117.129C664.064 118.085 664.367 118.741 664.985 119.097C665.603 119.464 666.209 119.642 666.804 119.642C667.534 119.642 668.163 119.453 668.679 119.075C669.196 118.697 669.6 118.274 669.892 117.785V117.83C669.914 119.041 670.464 119.642 671.542 119.642C671.958 119.642 672.351 119.542 672.721 119.342L672.699 118.419C672.519 118.497 672.317 118.541 672.093 118.541C671.576 118.541 671.318 118.219 671.318 117.574V113.317C671.318 111.316 670.24 110.315 668.084 110.315C667.489 110.315 666.927 110.382 666.4 110.515C665.861 110.66 665.356 110.882 664.884 111.182ZM669.881 116.096C669.824 116.829 669.521 117.418 668.971 117.841C668.421 118.274 667.837 118.486 667.208 118.486C666.815 118.486 666.433 118.374 666.074 118.163C665.704 117.952 665.524 117.552 665.524 116.974C665.524 116.274 665.805 115.829 666.344 115.618C666.894 115.406 667.5 115.306 668.185 115.306C668.488 115.306 668.78 115.318 669.061 115.351C669.342 115.373 669.622 115.395 669.869 115.406V116.096H669.881Z" fill="#C9B7AD"/>
<path d="M677.853 123.744V101H687.138V123.732H677.853V123.744ZM686.162 116.863C686.162 116.151 685.971 115.629 685.589 115.284C685.207 114.94 684.747 114.706 684.185 114.573C683.624 114.439 683.074 114.328 682.524 114.239C681.973 114.15 681.502 114.006 681.12 113.817C680.738 113.628 680.547 113.294 680.547 112.816C680.547 112.361 680.727 112.027 681.098 111.805C681.468 111.583 681.928 111.482 682.501 111.482C683.164 111.482 683.781 111.627 684.354 111.927L684.578 113.372L685.757 113.228L685.533 111.138C685.151 110.904 684.691 110.715 684.14 110.56C683.59 110.404 683.006 110.315 682.378 110.315C681.547 110.315 680.783 110.515 680.076 110.904C679.368 111.293 679.02 111.96 679.02 112.916C679.02 113.617 679.211 114.128 679.593 114.45C679.975 114.784 680.446 115.006 681.019 115.14C681.592 115.273 682.153 115.384 682.714 115.484C683.276 115.573 683.747 115.729 684.129 115.929C684.511 116.129 684.702 116.474 684.702 116.974C684.702 117.485 684.455 117.863 683.961 118.108C683.467 118.352 682.905 118.474 682.265 118.474C681.547 118.474 680.873 118.33 680.255 118.03L680.312 116.84L679.177 116.718L678.897 118.752C679.29 119.008 679.806 119.219 680.435 119.386C681.064 119.553 681.693 119.642 682.333 119.642C683.422 119.642 684.331 119.397 685.061 118.897C685.791 118.419 686.162 117.73 686.162 116.863Z" fill="#C9B7AD"/>
<path d="M691.731 123.744V101H701.017V123.732H691.731V123.744ZM700.04 116.863C700.04 116.151 699.85 115.629 699.468 115.284C699.086 114.94 698.626 114.706 698.064 114.573C697.503 114.439 696.953 114.328 696.402 114.239C695.852 114.15 695.381 114.006 694.999 113.817C694.617 113.628 694.426 113.294 694.426 112.816C694.426 112.361 694.606 112.027 694.976 111.805C695.347 111.583 695.807 111.482 696.38 111.482C697.042 111.482 697.66 111.627 698.233 111.927L698.457 113.372L699.636 113.228L699.412 111.138C699.03 110.904 698.569 110.715 698.019 110.56C697.469 110.404 696.885 110.315 696.256 110.315C695.426 110.315 694.662 110.515 693.955 110.904C693.247 111.293 692.899 111.96 692.899 112.916C692.899 113.617 693.09 114.128 693.472 114.45C693.854 114.784 694.325 115.006 694.898 115.14C695.471 115.273 696.032 115.384 696.593 115.484C697.155 115.573 697.626 115.729 698.008 115.929C698.39 116.129 698.581 116.474 698.581 116.974C698.581 117.485 698.334 117.863 697.84 118.108C697.346 118.352 696.784 118.474 696.144 118.474C695.426 118.474 694.752 118.33 694.134 118.03L694.19 116.84L693.056 116.718L692.776 118.752C693.169 119.008 693.685 119.219 694.314 119.386C694.943 119.553 695.572 119.642 696.212 119.642C697.301 119.642 698.21 119.397 698.94 118.897C699.67 118.419 700.04 117.73 700.04 116.863Z" fill="#C9B7AD"/>
<path d="M705.609 123.744V101H711.729V123.732H705.609V123.744ZM706.508 119.453H711.1V118.308H709.517V110.504H706.474V111.649H708.102V118.308H706.519V119.453H706.508ZM707.945 106.358V108.192H709.494V106.358H707.945Z" fill="#C9B7AD"/>
<path d="M716.321 123.744V101H726.101V123.732H716.321V123.744ZM725.225 116.44L724.002 116.173C723.732 117.685 722.912 118.441 721.565 118.441C720.667 118.441 719.982 118.141 719.51 117.541C719.039 116.94 718.803 116.096 718.803 115.029C718.803 114.061 719.016 113.239 719.432 112.55C719.847 111.86 720.543 111.527 721.509 111.527C722.25 111.527 722.901 111.694 723.44 112.027L723.788 113.539L724.967 113.394L724.619 111.238C724.159 110.893 723.676 110.649 723.171 110.515C722.665 110.382 722.115 110.315 721.52 110.315C720.116 110.315 719.05 110.804 718.354 111.783C717.646 112.761 717.298 113.872 717.298 115.106C717.298 116.54 717.669 117.663 718.421 118.452C719.162 119.253 720.161 119.653 721.408 119.653C722.654 119.653 723.575 119.308 724.159 118.63C724.743 117.941 725.102 117.218 725.225 116.44Z" fill="#C9B7AD"/>
<path d="M640.351 136.16C640.092 136.627 639.711 136.994 639.217 137.25C638.711 137.505 638.116 137.639 637.42 137.639H635.41V131.369H637.42C638.116 131.369 638.723 131.491 639.217 131.747C639.711 132.003 640.092 132.358 640.351 132.836C640.609 133.314 640.732 133.859 640.732 134.504C640.732 135.137 640.609 135.693 640.351 136.16ZM639.239 136.282C639.677 135.86 639.89 135.271 639.89 134.504C639.89 133.737 639.677 133.148 639.239 132.725C638.801 132.303 638.172 132.092 637.341 132.092H636.207V136.916H637.341C638.172 136.916 638.801 136.705 639.239 136.282Z" fill="#C9B7AD"/>
<path d="M644.898 132.025V134.17H647.301V134.793H644.898V136.983H647.57V137.639H644.078V131.369H647.57V132.025H644.898Z" fill="#C9B7AD"/>
<path d="M654.667 136.839C654.521 137.094 654.308 137.305 654.016 137.461C653.724 137.617 653.365 137.706 652.927 137.706C652.511 137.706 652.13 137.628 651.804 137.483C651.478 137.328 651.22 137.128 651.018 136.861C650.827 136.594 650.715 136.294 650.681 135.96H651.557C651.579 136.138 651.636 136.316 651.737 136.483C651.838 136.65 651.995 136.794 652.186 136.905C652.377 137.016 652.612 137.072 652.893 137.072C653.252 137.072 653.533 136.983 653.724 136.783C653.915 136.583 654.016 136.349 654.016 136.049C654.016 135.794 653.949 135.582 653.814 135.427C653.679 135.271 653.511 135.138 653.32 135.049C653.129 134.96 652.848 134.86 652.511 134.749C652.107 134.615 651.793 134.493 651.546 134.382C651.299 134.271 651.097 134.093 650.928 133.859C650.76 133.626 650.67 133.326 650.67 132.948C650.67 132.626 650.749 132.337 650.906 132.081C651.063 131.836 651.287 131.636 651.591 131.503C651.883 131.369 652.242 131.303 652.635 131.303C653.252 131.303 653.758 131.447 654.117 131.747C654.488 132.048 654.69 132.425 654.757 132.892H653.881C653.836 132.648 653.702 132.425 653.499 132.236C653.286 132.048 653.005 131.947 652.646 131.947C652.32 131.947 652.051 132.036 651.86 132.203C651.658 132.37 651.568 132.614 651.568 132.915C651.568 133.159 651.636 133.359 651.759 133.504C651.894 133.659 652.051 133.771 652.242 133.859C652.433 133.948 652.702 134.037 653.028 134.148C653.432 134.282 653.758 134.404 654.016 134.526C654.263 134.649 654.476 134.827 654.645 135.06C654.813 135.293 654.903 135.616 654.903 136.016C654.881 136.305 654.813 136.583 654.667 136.839Z" fill="#C9B7AD"/>
<path d="M659.046 131.369V137.639H658.227V131.369H659.046Z" fill="#C9B7AD"/>
<path d="M667.333 131.847C667.838 132.214 668.175 132.703 668.343 133.326H667.479C667.333 132.948 667.074 132.636 666.726 132.414C666.378 132.181 665.963 132.07 665.48 132.07C665.053 132.07 664.66 132.17 664.323 132.37C663.987 132.57 663.717 132.848 663.515 133.214C663.324 133.581 663.223 134.015 663.223 134.515C663.223 135.026 663.324 135.471 663.515 135.838C663.706 136.205 663.987 136.494 664.335 136.694C664.683 136.894 665.087 136.994 665.547 136.994C665.94 136.994 666.288 136.905 666.614 136.749C666.94 136.583 667.198 136.338 667.411 136.027C667.625 135.716 667.737 135.338 667.782 134.915H665.289V134.315H668.467V135.06C668.41 135.56 668.253 136.005 667.995 136.416C667.737 136.827 667.389 137.138 666.951 137.372C666.513 137.605 666.019 137.728 665.457 137.728C664.851 137.728 664.312 137.594 663.841 137.327C663.369 137.061 663.01 136.683 662.751 136.194C662.493 135.716 662.358 135.16 662.358 134.537C662.358 133.915 662.493 133.359 662.751 132.881C663.01 132.403 663.38 132.014 663.841 131.747C664.301 131.48 664.84 131.336 665.446 131.336C666.21 131.314 666.827 131.491 667.333 131.847Z" fill="#C9B7AD"/>
<path d="M676.753 137.639H675.934L672.644 132.681V137.639H671.824V131.369H672.644L675.934 136.327V131.369H676.753V137.639Z" fill="#C9B7AD"/>
<path d="M688.565 136.839C688.419 137.094 688.205 137.305 687.913 137.461C687.621 137.617 687.262 137.706 686.824 137.706C686.409 137.706 686.027 137.628 685.701 137.483C685.376 137.328 685.118 137.128 684.915 136.861C684.725 136.594 684.612 136.294 684.579 135.96H685.454C685.477 136.138 685.533 136.316 685.634 136.483C685.735 136.65 685.892 136.794 686.083 136.905C686.274 137.016 686.51 137.072 686.791 137.072C687.15 137.072 687.431 136.983 687.621 136.783C687.812 136.583 687.913 136.349 687.913 136.049C687.913 135.794 687.846 135.582 687.711 135.427C687.577 135.271 687.408 135.138 687.217 135.049C687.026 134.96 686.746 134.86 686.409 134.749C686.005 134.615 685.69 134.493 685.443 134.382C685.196 134.271 684.994 134.093 684.826 133.859C684.657 133.626 684.567 133.326 684.567 132.948C684.567 132.626 684.646 132.337 684.803 132.081C684.96 131.836 685.185 131.636 685.488 131.503C685.78 131.369 686.139 131.303 686.532 131.303C687.15 131.303 687.655 131.447 688.015 131.747C688.385 132.048 688.587 132.425 688.655 132.892H687.779C687.734 132.648 687.599 132.425 687.397 132.236C687.184 132.048 686.903 131.947 686.544 131.947C686.218 131.947 685.948 132.036 685.758 132.203C685.555 132.37 685.466 132.614 685.466 132.915C685.466 133.159 685.533 133.359 685.657 133.504C685.791 133.659 685.948 133.771 686.139 133.859C686.33 133.948 686.6 134.037 686.925 134.148C687.33 134.282 687.655 134.404 687.913 134.526C688.16 134.649 688.374 134.827 688.542 135.06C688.711 135.293 688.8 135.616 688.8 136.016C688.778 136.305 688.711 136.583 688.565 136.839Z" fill="#C9B7AD"/>
<path d="M696.009 131.369V132.025H694.224V137.639H693.393V132.025H691.607V131.369H696.009Z" fill="#C9B7AD"/>
<path d="M699.828 131.369V135.126C699.828 135.738 699.963 136.194 700.244 136.494C700.525 136.783 700.895 136.938 701.389 136.938C701.872 136.938 702.243 136.794 702.512 136.494C702.781 136.194 702.916 135.749 702.916 135.137V131.38H703.736V135.137C703.736 135.993 703.523 136.638 703.096 137.061C702.669 137.494 702.097 137.705 701.378 137.705C700.671 137.705 700.098 137.494 699.671 137.061C699.245 136.627 699.031 135.993 699.031 135.137V131.38H699.828V131.369Z" fill="#C9B7AD"/>
<path d="M712.189 136.16C711.931 136.627 711.549 136.994 711.055 137.25C710.55 137.505 709.955 137.639 709.259 137.639H707.249V131.369H709.259C709.955 131.369 710.561 131.491 711.055 131.747C711.549 132.003 711.931 132.358 712.189 132.836C712.448 133.314 712.571 133.859 712.571 134.504C712.571 135.137 712.448 135.693 712.189 136.16ZM711.089 136.282C711.527 135.86 711.74 135.271 711.74 134.504C711.74 133.737 711.527 133.148 711.089 132.725C710.651 132.303 710.022 132.092 709.192 132.092H708.057V136.916H709.192C710.011 136.916 710.651 136.705 711.089 136.282Z" fill="#C9B7AD"/>
<path d="M716.748 131.369V137.639H715.929V131.369H716.748Z" fill="#C9B7AD"/>
<path d="M724.788 131.702C725.259 131.98 725.63 132.358 725.899 132.847C726.169 133.336 726.304 133.892 726.304 134.504C726.304 135.115 726.169 135.671 725.899 136.16C725.63 136.649 725.259 137.027 724.788 137.305C724.316 137.583 723.788 137.716 723.204 137.716C722.621 137.716 722.082 137.583 721.61 137.305C721.138 137.027 720.757 136.649 720.487 136.16C720.218 135.671 720.083 135.115 720.083 134.504C720.083 133.892 720.218 133.336 720.487 132.847C720.757 132.358 721.127 131.98 721.61 131.702C722.093 131.424 722.621 131.291 723.204 131.291C723.788 131.291 724.316 131.424 724.788 131.702ZM722.025 132.347C721.677 132.547 721.408 132.825 721.217 133.203C721.026 133.57 720.925 134.003 720.925 134.504C720.925 134.993 721.026 135.426 721.217 135.804C721.408 136.182 721.677 136.46 722.025 136.66C722.374 136.86 722.755 136.96 723.193 136.96C723.62 136.96 724.013 136.86 724.361 136.66C724.709 136.46 724.979 136.171 725.169 135.804C725.36 135.437 725.461 135.004 725.461 134.515C725.461 134.014 725.36 133.581 725.169 133.214C724.979 132.847 724.709 132.558 724.361 132.358C724.013 132.158 723.631 132.058 723.193 132.058C722.767 132.047 722.374 132.147 722.025 132.347Z" fill="#C9B7AD"/>
<path d="M895.23 102L866.303 116V123H978.303V88L930.091 110L895.23 102Z" fill="url(#paint0_linear_1_4599)"/>
<path d="M865.303 116L894.746 101.754L930.23 109.614L979.303 88" stroke="#C78A6C" stroke-linecap="round"/>
<path d="M885.851 144.5H891.491C893.036 144.5 894.273 144.127 895.203 143.382C896.139 142.63 896.607 141.578 896.607 140.224C896.607 139.247 896.378 138.46 895.92 137.866C895.462 137.271 894.878 136.871 894.167 136.666V136.625C894.741 136.427 895.22 136.061 895.603 135.528C895.992 134.995 896.187 134.314 896.187 133.487C896.187 132.154 895.746 131.17 894.864 130.534C893.989 129.892 892.766 129.57 891.193 129.57H885.851V144.5ZM888.568 142.49V137.702H891.347C892.208 137.702 892.841 137.917 893.244 138.348C893.654 138.778 893.859 139.359 893.859 140.091C893.859 140.829 893.654 141.414 893.244 141.844C892.841 142.275 892.208 142.49 891.347 142.49H888.568ZM888.568 135.825V131.601H891.06C891.921 131.601 892.54 131.782 892.916 132.144C893.292 132.5 893.48 133.016 893.48 133.692C893.48 134.362 893.292 134.885 892.916 135.261C892.54 135.637 891.921 135.825 891.06 135.825H888.568ZM898.699 140.562C898.699 142.053 899.027 143.119 899.684 143.762C900.347 144.397 901.208 144.715 902.268 144.715C902.958 144.715 903.577 144.582 904.124 144.315C904.677 144.042 905.118 143.676 905.446 143.218H905.498L905.559 144.5H908.092V133.918H905.416V141.116C905.21 141.554 904.913 141.916 904.523 142.203C904.134 142.49 903.689 142.634 903.19 142.634C902.623 142.634 902.179 142.48 901.857 142.172C901.536 141.865 901.375 141.332 901.375 140.573V133.918H898.699V140.562ZM910.799 144.5H913.485V133.918H910.799V144.5ZM910.563 130.78C910.563 131.197 910.7 131.549 910.973 131.836C911.247 132.117 911.636 132.257 912.142 132.257C912.655 132.257 913.048 132.117 913.321 131.836C913.595 131.549 913.731 131.197 913.731 130.78C913.731 130.363 913.595 130.015 913.321 129.734C913.048 129.454 912.658 129.314 912.152 129.314C911.64 129.314 911.247 129.454 910.973 129.734C910.7 130.015 910.563 130.363 910.563 130.78ZM916.244 144.5H918.92V128.904H916.244V144.5ZM921.032 139.373C921.032 140.932 921.436 142.21 922.242 143.208C923.056 144.206 924.163 144.705 925.564 144.705C926.262 144.705 926.877 144.562 927.41 144.274C927.943 143.98 928.336 143.618 928.589 143.188H928.63L928.692 144.5H931.214V128.904H928.548V135.066C928.268 134.656 927.875 134.328 927.369 134.082C926.863 133.836 926.258 133.713 925.554 133.713C924.201 133.713 923.107 134.212 922.273 135.21C921.446 136.201 921.032 137.479 921.032 139.045V139.373ZM923.76 139.445V138.963C923.76 138.026 923.965 137.257 924.375 136.656C924.785 136.047 925.404 135.743 926.231 135.743C926.812 135.743 927.297 135.897 927.687 136.205C928.077 136.505 928.36 136.864 928.538 137.281V141.116C928.36 141.533 928.073 141.899 927.677 142.213C927.28 142.521 926.798 142.675 926.231 142.675C925.397 142.675 924.775 142.374 924.365 141.772C923.961 141.164 923.76 140.388 923.76 139.445ZM938.956 139.229C938.956 141.13 939.489 142.531 940.556 143.434C941.629 144.336 942.969 144.787 944.575 144.787C946.175 144.787 947.508 144.336 948.574 143.434C949.641 142.531 950.174 141.13 950.174 139.229V129.57H947.457V139.383C947.457 140.552 947.193 141.39 946.667 141.896C946.141 142.395 945.447 142.644 944.585 142.644C943.717 142.644 943.02 142.395 942.494 141.896C941.974 141.39 941.714 140.552 941.714 139.383V129.57H938.956V139.229ZM952.891 148.796H955.567V143.372C955.854 143.782 956.261 144.107 956.788 144.346C957.321 144.585 957.936 144.705 958.633 144.705C959.966 144.705 961.04 144.216 961.853 143.239C962.667 142.254 963.073 140.962 963.073 139.363V139.035C963.073 137.428 962.663 136.14 961.843 135.169C961.022 134.191 959.936 133.703 958.582 133.703C957.885 133.703 957.259 133.846 956.706 134.133C956.152 134.414 955.752 134.766 955.506 135.189H955.455L955.393 133.918H952.891V148.796ZM955.567 141.096V137.292C955.745 136.881 956.032 136.522 956.429 136.215C956.832 135.9 957.324 135.743 957.905 135.743C958.739 135.743 959.354 136.034 959.751 136.615C960.147 137.189 960.346 137.961 960.346 138.932V139.465C960.346 140.436 960.147 141.215 959.751 141.803C959.354 142.384 958.743 142.675 957.916 142.675C957.348 142.675 956.856 142.518 956.439 142.203C956.029 141.882 955.738 141.513 955.567 141.096Z" fill="#C9B7AD"/>
<defs>
<linearGradient id="paint0_linear_1_4599" x1="922.303" y1="88" x2="922.134" y2="122.501" gradientUnits="userSpaceOnUse">
<stop stop-color="#C78A6C"/>
<stop offset="1" stop-color="#F5F1EF"/>
</linearGradient>
</defs>
</svg>
