<svg width="235" height="22" viewBox="0 0 235 22" fill="none" xmlns="http://www.w3.org/2000/svg">
<path d="M15.766 1.95024C16.9948 1.95377 18.1723 2.42506 19.0411 3.26118C19.91 4.09729 20.3998 5.2303 20.4035 6.41274V15.3368C20.3998 16.5192 19.91 17.6522 19.0411 18.4884C18.1723 19.3245 16.9948 19.7958 15.766 19.7993H6.49213C5.26333 19.7958 4.08591 19.3245 3.21701 18.4884C2.34812 17.6522 1.85835 16.5192 1.85468 15.3368V6.41274C1.85835 5.2303 2.34812 4.09729 3.21701 3.26118C4.08591 2.42506 5.26333 1.95377 6.49213 1.95024H15.766ZM15.766 0.165527H6.49213C2.92138 0.165527 0 2.9767 0 6.41274V15.3368C0 18.7728 2.92138 21.584 6.49213 21.584H15.766C19.3368 21.584 22.2582 18.7728 22.2582 15.3368V6.41274C22.2582 2.9767 19.3368 0.165527 15.766 0.165527Z" fill="#3B3A5D"/>
<path d="M17.1571 6.41315C16.8819 6.41315 16.613 6.33464 16.3842 6.18755C16.1554 6.04045 15.9771 5.83138 15.8718 5.58678C15.7665 5.34217 15.739 5.07301 15.7927 4.81334C15.8464 4.55366 15.9788 4.31514 16.1734 4.12792C16.368 3.94071 16.6158 3.81321 16.8857 3.76156C17.1555 3.70991 17.4352 3.73642 17.6894 3.83774C17.9436 3.93906 18.1609 4.11064 18.3138 4.33078C18.4666 4.55092 18.5482 4.80973 18.5482 5.07449C18.5486 5.2504 18.5129 5.42464 18.4431 5.58722C18.3733 5.74981 18.2709 5.89753 18.1416 6.02191C18.0124 6.14629 17.8589 6.24488 17.6899 6.31202C17.5209 6.37916 17.3399 6.41353 17.1571 6.41315ZM11.129 7.30527C11.8627 7.30527 12.58 7.51464 13.1901 7.90691C13.8002 8.29917 14.2757 8.85671 14.5565 9.50903C14.8372 10.1613 14.9107 10.8791 14.7676 11.5716C14.6244 12.2641 14.2711 12.9002 13.7523 13.3995C13.2334 13.8987 12.5724 14.2387 11.8528 14.3765C11.1331 14.5142 10.3872 14.4435 9.70929 14.1733C9.03141 13.9031 8.452 13.4456 8.04436 12.8585C7.63672 12.2714 7.41914 11.5812 7.41914 10.8752C7.42019 9.92869 7.81138 9.02125 8.50689 8.35199C9.2024 7.68272 10.1454 7.30628 11.129 7.30527ZM11.129 5.52055C10.0284 5.52055 8.95259 5.8346 8.0375 6.42297C7.12242 7.01134 6.4092 7.84762 5.98803 8.82605C5.56686 9.80448 5.45667 10.8811 5.67138 11.9198C5.88609 12.9585 6.41606 13.9126 7.19427 14.6615C7.97249 15.4103 8.96399 15.9203 10.0434 16.1269C11.1228 16.3335 12.2417 16.2275 13.2585 15.8222C14.2752 15.4169 15.1443 14.7306 15.7557 13.85C16.3672 12.9695 16.6935 11.9342 16.6935 10.8752C16.6935 9.45504 16.1073 8.09307 15.0637 7.08889C14.0202 6.0847 12.6048 5.52055 11.129 5.52055Z" fill="#3B3A5D"/>
<path fill-rule="evenodd" clip-rule="evenodd" d="M75.2578 10.9395C75.2578 4.99113 70.1085 0.167969 63.7578 0.167969C57.4071 0.167969 52.2578 4.99113 52.2578 10.9395C52.2578 16.3157 56.4625 20.772 61.9609 21.5808V14.0542H59.0402V10.9395H61.9609V8.56643C61.9609 5.86729 63.6782 4.37513 66.3048 4.37513C67.5631 4.37513 68.8794 4.58576 68.8794 4.58576V7.23681H67.4286C66.0008 7.23681 65.5542 8.0668 65.5542 8.91987V10.9395H68.7434L68.2341 14.0542H65.5547V21.5818C71.0531 20.7734 75.2578 16.3172 75.2578 10.9395Z" fill="#3B3A5D"/>
<path d="M126.729 4.32631C125.923 4.67602 125.071 4.90641 124.199 5.01021C125.116 4.47399 125.805 3.6221 126.138 2.61432C125.271 3.12059 124.325 3.4758 123.339 3.66476C122.924 3.23007 122.425 2.88427 121.872 2.64836C121.319 2.41245 120.724 2.29138 120.122 2.29249C117.688 2.29249 115.718 4.23244 115.718 6.62386C115.717 6.9565 115.755 7.28814 115.832 7.61172C114.086 7.52994 112.377 7.08497 110.813 6.30527C109.25 5.52556 107.866 4.4283 106.751 3.08367C106.36 3.74259 106.153 4.4944 106.152 5.26053C106.152 6.76243 106.937 8.09 108.121 8.86777C107.419 8.85113 106.732 8.6656 106.118 8.32691V8.38055C106.118 10.4814 107.638 12.2292 109.651 12.627C109.273 12.7278 108.883 12.7789 108.491 12.779C108.213 12.7795 107.936 12.7525 107.663 12.6985C108.223 14.4194 109.851 15.671 111.781 15.7068C110.213 16.9141 108.288 17.5666 106.309 17.5618C105.958 17.5613 105.607 17.5404 105.258 17.4992C107.271 18.784 109.612 19.4636 112.001 19.4571C120.113 19.4571 124.545 12.855 124.545 7.12896C124.545 6.94123 124.54 6.75349 124.531 6.57022C125.391 5.95876 126.136 5.19889 126.729 4.32631Z" fill="#3B3A5D"/>
<path d="M176.74 0H158.588C157.596 0 156.729 0.71367 156.729 1.69387V19.8861C156.729 20.8717 157.596 21.7499 158.588 21.7499H176.735C177.732 21.7499 178.479 20.8659 178.479 19.8861V1.69387C178.485 0.71367 177.732 0 176.74 0ZM163.471 18.1296H160.356V8.44169H163.471V18.1296ZM162.021 6.96872H161.999C161.002 6.96872 160.356 6.2264 160.356 5.29718C160.356 4.35096 161.019 3.62612 162.038 3.62612C163.058 3.62612 163.682 4.34562 163.704 5.29718C163.704 6.2264 163.058 6.96872 162.021 6.96872ZM174.859 18.1296H171.743V12.8325C171.743 11.5634 171.29 10.6963 170.163 10.6963C169.301 10.6963 168.791 11.2789 168.565 11.8464C168.48 12.0503 168.457 12.328 168.457 12.6116V18.1296H165.341V8.44169H168.457V9.7899C168.91 9.1442 169.619 8.21497 171.267 8.21497C173.312 8.21497 174.86 9.56317 174.86 12.4698L174.859 18.1296Z" fill="#3B3A5D"/>
<path d="M234.312 5.57022C234.312 3.34372 232.631 1.55263 230.554 1.55263C227.741 1.42448 224.871 1.375 221.939 1.375H221.024C218.099 1.375 215.224 1.42448 212.411 1.55312C210.339 1.55312 208.658 3.35411 208.658 5.58062C208.531 7.34153 208.477 9.10294 208.48 10.8644C208.475 12.6258 208.532 14.3888 208.652 16.1535C208.652 18.38 210.334 20.186 212.406 20.186C215.362 20.3196 218.394 20.3789 221.476 20.374C224.564 20.3839 227.588 20.3212 230.547 20.186C232.624 20.186 234.305 18.38 234.305 16.1535C234.427 14.3872 234.483 12.6258 234.478 10.8594C234.49 9.09799 234.434 7.33493 234.312 5.57022ZM218.993 15.7181V5.99573L226.357 10.8545L218.993 15.7181Z" fill="#3B3A5D"/>
</svg>
